<?xml version="1.0" encoding="UTF-8"?>
<svg version="1.1" baseProfile="tiny" xmlns="http://www.w3.org/2000/svg" width="50" height="50">
<rect shape-rendering="optimizeSpeed"  x="0" y="0" width="50" height="50" fill="white" />
<rect shape-rendering="optimizeSpeed"  x="4" y="4" width="2" height="2" fill="black" />
<rect shape-rendering="optimizeSpeed"  x="6" y="4" width="2" height="2" fill="black" />
<rect shape-rendering="optimizeSpeed"  x="8" y="4" width="2" height="2" fill="black" />
<rect shape-rendering="optimizeSpeed"  x="10" y="4" width="2" height="2" fill="black" />
<rect shape-rendering="optimizeSpeed"  x="12" y="4" width="2" height="2" fill="black" />
<rect shape-rendering="optimizeSpeed"  x="14" y="4" width="2" height="2" fill="black" />
<rect shape-rendering="optimizeSpeed"  x="16" y="4" width="2" height="2" fill="black" />
<rect shape-rendering="optimizeSpeed"  x="20" y="4" width="2" height="2" fill="black" />
<rect shape-rendering="optimizeSpeed"  x="28" y="4" width="2" height="2" fill="black" />
<rect shape-rendering="optimizeSpeed"  x="32" y="4" width="2" height="2" fill="black" />
<rect shape-rendering="optimizeSpeed"  x="34" y="4" width="2" height="2" fill="black" />
<rect shape-rendering="optimizeSpeed"  x="36" y="4" width="2" height="2" fill="black" />
<rect shape-rendering="optimizeSpeed"  x="38" y="4" width="2" height="2" fill="black" />
<rect shape-rendering="optimizeSpeed"  x="40" y="4" width="2" height="2" fill="black" />
<rect shape-rendering="optimizeSpeed"  x="42" y="4" width="2" height="2" fill="black" />
<rect shape-rendering="optimizeSpeed"  x="44" y="4" width="2" height="2" fill="black" />
<rect shape-rendering="optimizeSpeed"  x="4" y="6" width="2" height="2" fill="black" />
<rect shape-rendering="optimizeSpeed"  x="16" y="6" width="2" height="2" fill="black" />
<rect shape-rendering="optimizeSpeed"  x="20" y="6" width="2" height="2" fill="black" />
<rect shape-rendering="optimizeSpeed"  x="22" y="6" width="2" height="2" fill="black" />
<rect shape-rendering="optimizeSpeed"  x="26" y="6" width="2" height="2" fill="black" />
<rect shape-rendering="optimizeSpeed"  x="32" y="6" width="2" height="2" fill="black" />
<rect shape-rendering="optimizeSpeed"  x="44" y="6" width="2" height="2" fill="black" />
<rect shape-rendering="optimizeSpeed"  x="4" y="8" width="2" height="2" fill="black" />
<rect shape-rendering="optimizeSpeed"  x="8" y="8" width="2" height="2" fill="black" />
<rect shape-rendering="optimizeSpeed"  x="10" y="8" width="2" height="2" fill="black" />
<rect shape-rendering="optimizeSpeed"  x="12" y="8" width="2" height="2" fill="black" />
<rect shape-rendering="optimizeSpeed"  x="16" y="8" width="2" height="2" fill="black" />
<rect shape-rendering="optimizeSpeed"  x="20" y="8" width="2" height="2" fill="black" />
<rect shape-rendering="optimizeSpeed"  x="22" y="8" width="2" height="2" fill="black" />
<rect shape-rendering="optimizeSpeed"  x="24" y="8" width="2" height="2" fill="black" />
<rect shape-rendering="optimizeSpeed"  x="26" y="8" width="2" height="2" fill="black" />
<rect shape-rendering="optimizeSpeed"  x="28" y="8" width="2" height="2" fill="black" />
<rect shape-rendering="optimizeSpeed"  x="32" y="8" width="2" height="2" fill="black" />
<rect shape-rendering="optimizeSpeed"  x="36" y="8" width="2" height="2" fill="black" />
<rect shape-rendering="optimizeSpeed"  x="38" y="8" width="2" height="2" fill="black" />
<rect shape-rendering="optimizeSpeed"  x="40" y="8" width="2" height="2" fill="black" />
<rect shape-rendering="optimizeSpeed"  x="44" y="8" width="2" height="2" fill="black" />
<rect shape-rendering="optimizeSpeed"  x="4" y="10" width="2" height="2" fill="black" />
<rect shape-rendering="optimizeSpeed"  x="8" y="10" width="2" height="2" fill="black" />
<rect shape-rendering="optimizeSpeed"  x="10" y="10" width="2" height="2" fill="black" />
<rect shape-rendering="optimizeSpeed"  x="12" y="10" width="2" height="2" fill="black" />
<rect shape-rendering="optimizeSpeed"  x="16" y="10" width="2" height="2" fill="black" />
<rect shape-rendering="optimizeSpeed"  x="20" y="10" width="2" height="2" fill="black" />
<rect shape-rendering="optimizeSpeed"  x="24" y="10" width="2" height="2" fill="black" />
<rect shape-rendering="optimizeSpeed"  x="28" y="10" width="2" height="2" fill="black" />
<rect shape-rendering="optimizeSpeed"  x="32" y="10" width="2" height="2" fill="black" />
<rect shape-rendering="optimizeSpeed"  x="36" y="10" width="2" height="2" fill="black" />
<rect shape-rendering="optimizeSpeed"  x="38" y="10" width="2" height="2" fill="black" />
<rect shape-rendering="optimizeSpeed"  x="40" y="10" width="2" height="2" fill="black" />
<rect shape-rendering="optimizeSpeed"  x="44" y="10" width="2" height="2" fill="black" />
<rect shape-rendering="optimizeSpeed"  x="4" y="12" width="2" height="2" fill="black" />
<rect shape-rendering="optimizeSpeed"  x="8" y="12" width="2" height="2" fill="black" />
<rect shape-rendering="optimizeSpeed"  x="10" y="12" width="2" height="2" fill="black" />
<rect shape-rendering="optimizeSpeed"  x="12" y="12" width="2" height="2" fill="black" />
<rect shape-rendering="optimizeSpeed"  x="16" y="12" width="2" height="2" fill="black" />
<rect shape-rendering="optimizeSpeed"  x="22" y="12" width="2" height="2" fill="black" />
<rect shape-rendering="optimizeSpeed"  x="24" y="12" width="2" height="2" fill="black" />
<rect shape-rendering="optimizeSpeed"  x="26" y="12" width="2" height="2" fill="black" />
<rect shape-rendering="optimizeSpeed"  x="28" y="12" width="2" height="2" fill="black" />
<rect shape-rendering="optimizeSpeed"  x="32" y="12" width="2" height="2" fill="black" />
<rect shape-rendering="optimizeSpeed"  x="36" y="12" width="2" height="2" fill="black" />
<rect shape-rendering="optimizeSpeed"  x="38" y="12" width="2" height="2" fill="black" />
<rect shape-rendering="optimizeSpeed"  x="40" y="12" width="2" height="2" fill="black" />
<rect shape-rendering="optimizeSpeed"  x="44" y="12" width="2" height="2" fill="black" />
<rect shape-rendering="optimizeSpeed"  x="4" y="14" width="2" height="2" fill="black" />
<rect shape-rendering="optimizeSpeed"  x="16" y="14" width="2" height="2" fill="black" />
<rect shape-rendering="optimizeSpeed"  x="20" y="14" width="2" height="2" fill="black" />
<rect shape-rendering="optimizeSpeed"  x="24" y="14" width="2" height="2" fill="black" />
<rect shape-rendering="optimizeSpeed"  x="28" y="14" width="2" height="2" fill="black" />
<rect shape-rendering="optimizeSpeed"  x="32" y="14" width="2" height="2" fill="black" />
<rect shape-rendering="optimizeSpeed"  x="44" y="14" width="2" height="2" fill="black" />
<rect shape-rendering="optimizeSpeed"  x="4" y="16" width="2" height="2" fill="black" />
<rect shape-rendering="optimizeSpeed"  x="6" y="16" width="2" height="2" fill="black" />
<rect shape-rendering="optimizeSpeed"  x="8" y="16" width="2" height="2" fill="black" />
<rect shape-rendering="optimizeSpeed"  x="10" y="16" width="2" height="2" fill="black" />
<rect shape-rendering="optimizeSpeed"  x="12" y="16" width="2" height="2" fill="black" />
<rect shape-rendering="optimizeSpeed"  x="14" y="16" width="2" height="2" fill="black" />
<rect shape-rendering="optimizeSpeed"  x="16" y="16" width="2" height="2" fill="black" />
<rect shape-rendering="optimizeSpeed"  x="20" y="16" width="2" height="2" fill="black" />
<rect shape-rendering="optimizeSpeed"  x="24" y="16" width="2" height="2" fill="black" />
<rect shape-rendering="optimizeSpeed"  x="28" y="16" width="2" height="2" fill="black" />
<rect shape-rendering="optimizeSpeed"  x="32" y="16" width="2" height="2" fill="black" />
<rect shape-rendering="optimizeSpeed"  x="34" y="16" width="2" height="2" fill="black" />
<rect shape-rendering="optimizeSpeed"  x="36" y="16" width="2" height="2" fill="black" />
<rect shape-rendering="optimizeSpeed"  x="38" y="16" width="2" height="2" fill="black" />
<rect shape-rendering="optimizeSpeed"  x="40" y="16" width="2" height="2" fill="black" />
<rect shape-rendering="optimizeSpeed"  x="42" y="16" width="2" height="2" fill="black" />
<rect shape-rendering="optimizeSpeed"  x="44" y="16" width="2" height="2" fill="black" />
<rect shape-rendering="optimizeSpeed"  x="4" y="20" width="2" height="2" fill="black" />
<rect shape-rendering="optimizeSpeed"  x="6" y="20" width="2" height="2" fill="black" />
<rect shape-rendering="optimizeSpeed"  x="12" y="20" width="2" height="2" fill="black" />
<rect shape-rendering="optimizeSpeed"  x="14" y="20" width="2" height="2" fill="black" />
<rect shape-rendering="optimizeSpeed"  x="16" y="20" width="2" height="2" fill="black" />
<rect shape-rendering="optimizeSpeed"  x="28" y="20" width="2" height="2" fill="black" />
<rect shape-rendering="optimizeSpeed"  x="34" y="20" width="2" height="2" fill="black" />
<rect shape-rendering="optimizeSpeed"  x="38" y="20" width="2" height="2" fill="black" />
<rect shape-rendering="optimizeSpeed"  x="40" y="20" width="2" height="2" fill="black" />
<rect shape-rendering="optimizeSpeed"  x="42" y="20" width="2" height="2" fill="black" />
<rect shape-rendering="optimizeSpeed"  x="44" y="20" width="2" height="2" fill="black" />
<rect shape-rendering="optimizeSpeed"  x="4" y="22" width="2" height="2" fill="black" />
<rect shape-rendering="optimizeSpeed"  x="8" y="22" width="2" height="2" fill="black" />
<rect shape-rendering="optimizeSpeed"  x="18" y="22" width="2" height="2" fill="black" />
<rect shape-rendering="optimizeSpeed"  x="20" y="22" width="2" height="2" fill="black" />
<rect shape-rendering="optimizeSpeed"  x="24" y="22" width="2" height="2" fill="black" />
<rect shape-rendering="optimizeSpeed"  x="28" y="22" width="2" height="2" fill="black" />
<rect shape-rendering="optimizeSpeed"  x="30" y="22" width="2" height="2" fill="black" />
<rect shape-rendering="optimizeSpeed"  x="36" y="22" width="2" height="2" fill="black" />
<rect shape-rendering="optimizeSpeed"  x="38" y="22" width="2" height="2" fill="black" />
<rect shape-rendering="optimizeSpeed"  x="42" y="22" width="2" height="2" fill="black" />
<rect shape-rendering="optimizeSpeed"  x="4" y="24" width="2" height="2" fill="black" />
<rect shape-rendering="optimizeSpeed"  x="6" y="24" width="2" height="2" fill="black" />
<rect shape-rendering="optimizeSpeed"  x="8" y="24" width="2" height="2" fill="black" />
<rect shape-rendering="optimizeSpeed"  x="10" y="24" width="2" height="2" fill="black" />
<rect shape-rendering="optimizeSpeed"  x="12" y="24" width="2" height="2" fill="black" />
<rect shape-rendering="optimizeSpeed"  x="16" y="24" width="2" height="2" fill="black" />
<rect shape-rendering="optimizeSpeed"  x="18" y="24" width="2" height="2" fill="black" />
<rect shape-rendering="optimizeSpeed"  x="24" y="24" width="2" height="2" fill="black" />
<rect shape-rendering="optimizeSpeed"  x="28" y="24" width="2" height="2" fill="black" />
<rect shape-rendering="optimizeSpeed"  x="30" y="24" width="2" height="2" fill="black" />
<rect shape-rendering="optimizeSpeed"  x="36" y="24" width="2" height="2" fill="black" />
<rect shape-rendering="optimizeSpeed"  x="38" y="24" width="2" height="2" fill="black" />
<rect shape-rendering="optimizeSpeed"  x="40" y="24" width="2" height="2" fill="black" />
<rect shape-rendering="optimizeSpeed"  x="6" y="26" width="2" height="2" fill="black" />
<rect shape-rendering="optimizeSpeed"  x="8" y="26" width="2" height="2" fill="black" />
<rect shape-rendering="optimizeSpeed"  x="10" y="26" width="2" height="2" fill="black" />
<rect shape-rendering="optimizeSpeed"  x="14" y="26" width="2" height="2" fill="black" />
<rect shape-rendering="optimizeSpeed"  x="18" y="26" width="2" height="2" fill="black" />
<rect shape-rendering="optimizeSpeed"  x="20" y="26" width="2" height="2" fill="black" />
<rect shape-rendering="optimizeSpeed"  x="26" y="26" width="2" height="2" fill="black" />
<rect shape-rendering="optimizeSpeed"  x="28" y="26" width="2" height="2" fill="black" />
<rect shape-rendering="optimizeSpeed"  x="30" y="26" width="2" height="2" fill="black" />
<rect shape-rendering="optimizeSpeed"  x="34" y="26" width="2" height="2" fill="black" />
<rect shape-rendering="optimizeSpeed"  x="36" y="26" width="2" height="2" fill="black" />
<rect shape-rendering="optimizeSpeed"  x="42" y="26" width="2" height="2" fill="black" />
<rect shape-rendering="optimizeSpeed"  x="44" y="26" width="2" height="2" fill="black" />
<rect shape-rendering="optimizeSpeed"  x="10" y="28" width="2" height="2" fill="black" />
<rect shape-rendering="optimizeSpeed"  x="12" y="28" width="2" height="2" fill="black" />
<rect shape-rendering="optimizeSpeed"  x="14" y="28" width="2" height="2" fill="black" />
<rect shape-rendering="optimizeSpeed"  x="16" y="28" width="2" height="2" fill="black" />
<rect shape-rendering="optimizeSpeed"  x="20" y="28" width="2" height="2" fill="black" />
<rect shape-rendering="optimizeSpeed"  x="24" y="28" width="2" height="2" fill="black" />
<rect shape-rendering="optimizeSpeed"  x="26" y="28" width="2" height="2" fill="black" />
<rect shape-rendering="optimizeSpeed"  x="30" y="28" width="2" height="2" fill="black" />
<rect shape-rendering="optimizeSpeed"  x="34" y="28" width="2" height="2" fill="black" />
<rect shape-rendering="optimizeSpeed"  x="36" y="28" width="2" height="2" fill="black" />
<rect shape-rendering="optimizeSpeed"  x="38" y="28" width="2" height="2" fill="black" />
<rect shape-rendering="optimizeSpeed"  x="42" y="28" width="2" height="2" fill="black" />
<rect shape-rendering="optimizeSpeed"  x="44" y="28" width="2" height="2" fill="black" />
<rect shape-rendering="optimizeSpeed"  x="20" y="30" width="2" height="2" fill="black" />
<rect shape-rendering="optimizeSpeed"  x="26" y="30" width="2" height="2" fill="black" />
<rect shape-rendering="optimizeSpeed"  x="28" y="30" width="2" height="2" fill="black" />
<rect shape-rendering="optimizeSpeed"  x="36" y="30" width="2" height="2" fill="black" />
<rect shape-rendering="optimizeSpeed"  x="38" y="30" width="2" height="2" fill="black" />
<rect shape-rendering="optimizeSpeed"  x="40" y="30" width="2" height="2" fill="black" />
<rect shape-rendering="optimizeSpeed"  x="4" y="32" width="2" height="2" fill="black" />
<rect shape-rendering="optimizeSpeed"  x="6" y="32" width="2" height="2" fill="black" />
<rect shape-rendering="optimizeSpeed"  x="8" y="32" width="2" height="2" fill="black" />
<rect shape-rendering="optimizeSpeed"  x="10" y="32" width="2" height="2" fill="black" />
<rect shape-rendering="optimizeSpeed"  x="12" y="32" width="2" height="2" fill="black" />
<rect shape-rendering="optimizeSpeed"  x="14" y="32" width="2" height="2" fill="black" />
<rect shape-rendering="optimizeSpeed"  x="16" y="32" width="2" height="2" fill="black" />
<rect shape-rendering="optimizeSpeed"  x="22" y="32" width="2" height="2" fill="black" />
<rect shape-rendering="optimizeSpeed"  x="24" y="32" width="2" height="2" fill="black" />
<rect shape-rendering="optimizeSpeed"  x="26" y="32" width="2" height="2" fill="black" />
<rect shape-rendering="optimizeSpeed"  x="32" y="32" width="2" height="2" fill="black" />
<rect shape-rendering="optimizeSpeed"  x="36" y="32" width="2" height="2" fill="black" />
<rect shape-rendering="optimizeSpeed"  x="38" y="32" width="2" height="2" fill="black" />
<rect shape-rendering="optimizeSpeed"  x="40" y="32" width="2" height="2" fill="black" />
<rect shape-rendering="optimizeSpeed"  x="42" y="32" width="2" height="2" fill="black" />
<rect shape-rendering="optimizeSpeed"  x="4" y="34" width="2" height="2" fill="black" />
<rect shape-rendering="optimizeSpeed"  x="16" y="34" width="2" height="2" fill="black" />
<rect shape-rendering="optimizeSpeed"  x="20" y="34" width="2" height="2" fill="black" />
<rect shape-rendering="optimizeSpeed"  x="24" y="34" width="2" height="2" fill="black" />
<rect shape-rendering="optimizeSpeed"  x="30" y="34" width="2" height="2" fill="black" />
<rect shape-rendering="optimizeSpeed"  x="36" y="34" width="2" height="2" fill="black" />
<rect shape-rendering="optimizeSpeed"  x="44" y="34" width="2" height="2" fill="black" />
<rect shape-rendering="optimizeSpeed"  x="4" y="36" width="2" height="2" fill="black" />
<rect shape-rendering="optimizeSpeed"  x="8" y="36" width="2" height="2" fill="black" />
<rect shape-rendering="optimizeSpeed"  x="10" y="36" width="2" height="2" fill="black" />
<rect shape-rendering="optimizeSpeed"  x="12" y="36" width="2" height="2" fill="black" />
<rect shape-rendering="optimizeSpeed"  x="16" y="36" width="2" height="2" fill="black" />
<rect shape-rendering="optimizeSpeed"  x="20" y="36" width="2" height="2" fill="black" />
<rect shape-rendering="optimizeSpeed"  x="22" y="36" width="2" height="2" fill="black" />
<rect shape-rendering="optimizeSpeed"  x="28" y="36" width="2" height="2" fill="black" />
<rect shape-rendering="optimizeSpeed"  x="30" y="36" width="2" height="2" fill="black" />
<rect shape-rendering="optimizeSpeed"  x="36" y="36" width="2" height="2" fill="black" />
<rect shape-rendering="optimizeSpeed"  x="42" y="36" width="2" height="2" fill="black" />
<rect shape-rendering="optimizeSpeed"  x="4" y="38" width="2" height="2" fill="black" />
<rect shape-rendering="optimizeSpeed"  x="8" y="38" width="2" height="2" fill="black" />
<rect shape-rendering="optimizeSpeed"  x="10" y="38" width="2" height="2" fill="black" />
<rect shape-rendering="optimizeSpeed"  x="12" y="38" width="2" height="2" fill="black" />
<rect shape-rendering="optimizeSpeed"  x="16" y="38" width="2" height="2" fill="black" />
<rect shape-rendering="optimizeSpeed"  x="28" y="38" width="2" height="2" fill="black" />
<rect shape-rendering="optimizeSpeed"  x="30" y="38" width="2" height="2" fill="black" />
<rect shape-rendering="optimizeSpeed"  x="32" y="38" width="2" height="2" fill="black" />
<rect shape-rendering="optimizeSpeed"  x="36" y="38" width="2" height="2" fill="black" />
<rect shape-rendering="optimizeSpeed"  x="40" y="38" width="2" height="2" fill="black" />
<rect shape-rendering="optimizeSpeed"  x="42" y="38" width="2" height="2" fill="black" />
<rect shape-rendering="optimizeSpeed"  x="44" y="38" width="2" height="2" fill="black" />
<rect shape-rendering="optimizeSpeed"  x="4" y="40" width="2" height="2" fill="black" />
<rect shape-rendering="optimizeSpeed"  x="8" y="40" width="2" height="2" fill="black" />
<rect shape-rendering="optimizeSpeed"  x="10" y="40" width="2" height="2" fill="black" />
<rect shape-rendering="optimizeSpeed"  x="12" y="40" width="2" height="2" fill="black" />
<rect shape-rendering="optimizeSpeed"  x="16" y="40" width="2" height="2" fill="black" />
<rect shape-rendering="optimizeSpeed"  x="22" y="40" width="2" height="2" fill="black" />
<rect shape-rendering="optimizeSpeed"  x="24" y="40" width="2" height="2" fill="black" />
<rect shape-rendering="optimizeSpeed"  x="28" y="40" width="2" height="2" fill="black" />
<rect shape-rendering="optimizeSpeed"  x="30" y="40" width="2" height="2" fill="black" />
<rect shape-rendering="optimizeSpeed"  x="36" y="40" width="2" height="2" fill="black" />
<rect shape-rendering="optimizeSpeed"  x="4" y="42" width="2" height="2" fill="black" />
<rect shape-rendering="optimizeSpeed"  x="16" y="42" width="2" height="2" fill="black" />
<rect shape-rendering="optimizeSpeed"  x="20" y="42" width="2" height="2" fill="black" />
<rect shape-rendering="optimizeSpeed"  x="22" y="42" width="2" height="2" fill="black" />
<rect shape-rendering="optimizeSpeed"  x="24" y="42" width="2" height="2" fill="black" />
<rect shape-rendering="optimizeSpeed"  x="26" y="42" width="2" height="2" fill="black" />
<rect shape-rendering="optimizeSpeed"  x="28" y="42" width="2" height="2" fill="black" />
<rect shape-rendering="optimizeSpeed"  x="34" y="42" width="2" height="2" fill="black" />
<rect shape-rendering="optimizeSpeed"  x="36" y="42" width="2" height="2" fill="black" />
<rect shape-rendering="optimizeSpeed"  x="4" y="44" width="2" height="2" fill="black" />
<rect shape-rendering="optimizeSpeed"  x="6" y="44" width="2" height="2" fill="black" />
<rect shape-rendering="optimizeSpeed"  x="8" y="44" width="2" height="2" fill="black" />
<rect shape-rendering="optimizeSpeed"  x="10" y="44" width="2" height="2" fill="black" />
<rect shape-rendering="optimizeSpeed"  x="12" y="44" width="2" height="2" fill="black" />
<rect shape-rendering="optimizeSpeed"  x="14" y="44" width="2" height="2" fill="black" />
<rect shape-rendering="optimizeSpeed"  x="16" y="44" width="2" height="2" fill="black" />
<rect shape-rendering="optimizeSpeed"  x="20" y="44" width="2" height="2" fill="black" />
<rect shape-rendering="optimizeSpeed"  x="24" y="44" width="2" height="2" fill="black" />
<rect shape-rendering="optimizeSpeed"  x="26" y="44" width="2" height="2" fill="black" />
<rect shape-rendering="optimizeSpeed"  x="30" y="44" width="2" height="2" fill="black" />
<rect shape-rendering="optimizeSpeed"  x="32" y="44" width="2" height="2" fill="black" />
<rect shape-rendering="optimizeSpeed"  x="34" y="44" width="2" height="2" fill="black" />
<rect shape-rendering="optimizeSpeed"  x="36" y="44" width="2" height="2" fill="black" />
<rect shape-rendering="optimizeSpeed"  x="44" y="44" width="2" height="2" fill="black" /></svg>